<svg xmlns="http://www.w3.org/2000/svg" viewBox="0 0 1291.47 1291.47"><defs><style>.cls-1{fill:#7f5af0;}</style></defs><g id="Layer_2" data-name="Layer 2"><g id="Layer_1-2" data-name="Layer 1"><path class="cls-1" d="M645.74,1291.47a17.49,17.49,0,0,1-17.5-17.5c0-308.89,0-463.93-73.41-537.33s-228.44-73.4-537.33-73.4a17.5,17.5,0,0,1,0-35c308.89,0,463.93,0,537.33-73.41S628.24,326.39,628.24,17.5a17.5,17.5,0,0,1,35,0c0,308.89,0,463.93,73.4,537.33S965.08,628.24,1274,628.24a17.5,17.5,0,0,1,0,35c-308.89,0-463.93,0-537.33,73.4s-73.4,228.44-73.4,537.33A17.5,17.5,0,0,1,645.74,1291.47ZM434.3,645.74c64.7,12,111.29,32.16,145.28,66.15s54.18,80.58,66.16,145.28c12-64.7,32.16-111.28,66.15-145.28s80.58-54.18,145.28-66.15c-64.7-12-111.28-32.16-145.28-66.16S657.71,499,645.74,434.3c-12,64.7-32.16,111.29-66.16,145.28S499,633.76,434.3,645.74Z"/></g></g></svg>