<svg xmlns="http://www.w3.org/2000/svg" viewBox="0 0 450 438.7"><defs><style>.cls-1{fill:#7f5af0;}</style></defs><g id="Layer_2" data-name="Layer 2"><g id="Layer_1-2" data-name="Layer 1"><path class="cls-1" d="M0,0V438.7H450V0ZM18.7,18.7H431.2V419.9H18.7Z"/><path class="cls-1" d="M297.88,176.65A52.72,52.72,0,0,0,267,81.26H181.66a52.71,52.71,0,0,0-30.88,95.39,52.59,52.59,0,0,0,0,85.35,52.71,52.71,0,1,0,83.59,42.67V260.62a52.72,52.72,0,1,0,63.51-84ZM299.64,134A32.76,32.76,0,0,1,267,166.61H234.37V101.34H267A32.76,32.76,0,0,1,299.64,134ZM149,134a32.76,32.76,0,0,1,32.64-32.63h32.63v65.27H181.66A32.76,32.76,0,0,1,149,134Zm0,85.35a32.76,32.76,0,0,1,32.64-32.63h32.63V252H181.66A32.75,32.75,0,0,1,149,219.32Zm32.64,118a32.63,32.63,0,1,1,0-65.26h32.63v32.63A32.76,32.76,0,0,1,181.66,337.3ZM267,252a32.63,32.63,0,0,1,0-65.26h0A32.63,32.63,0,1,1,267,252Z"/></g></g></svg>