<svg xmlns="http://www.w3.org/2000/svg" viewBox="0 0 470.9 459.84"><defs><style>.cls-1{fill:#7f5af0;}</style></defs><g id="Layer_2" data-name="Layer 2"><g id="Layer_1-2" data-name="Layer 1"><path class="cls-1" d="M0,0H470.9V459.84H0ZM22.31,21.49V439.32H449.64V21.49Z"/><path class="cls-1" d="M329.53,323.55c-8.18,0-16.78.11-25.36-.17-.95,0-2.46-2.3-2.61-3.65-.61-5.77-.81-11.58-1.15-17.17-4.6,4.95-8.56,10.63-13.8,14.6-22.19,16.79-52.91,11.3-69.32-12C204.72,287.27,201.37,267,203,245.79c1.41-18.65,7-35.77,20.1-49.82,16.06-17.18,43.86-21.49,62.4-9.16,4.17,2.76,7.54,6.71,11.61,10.41V118.78h32.43Zm-31-72c-1.5-8.59-1.76-18.33-5-26.94-7.5-19.92-32.82-23.56-46.76-7.46-12.86,14.86-15,46.81-4.36,65.69,6,10.69,15.16,16.15,27.49,15.22s20.88-8,24.35-19.64C296.73,270.11,297.08,261.19,298.53,251.52Z"/><path class="cls-1" d="M139.88,129.07h34.44v194.2H139.88Z"/></g></g></svg>