<svg xmlns="http://www.w3.org/2000/svg" viewBox="0 0 450 438.7"><defs><style>.cls-1{fill:#7f5af0;}</style></defs><g id="Layer_2" data-name="Layer 2"><g id="Layer_1-2" data-name="Layer 1"><path class="cls-1" d="M0,0V438.7H450V0ZM18.7,18.7H431.2V419.9H18.7Zm90.1,84c0-1.3,2.6-2.2,4.2-2.2,12.1-.6,29.8-1,48.3-1,52,0,72.2,28.5,72.2,65,0,47.7-34.6,68.1-76.9,68.1-7.2,0-9.6-.4-14.6-.4v72.1c0,1.5-.6,2.2-2.1,2.2h-29c-1.5,0-2.1-.6-2.1-2.1V102.7ZM142,202.3c4.3.3,7.8.3,15.2.3,21.9,0,42.6-7.8,42.6-37.4,0-23.8-14.8-35.9-39.8-35.9-7.4,0-14.5.3-17.9.6v72.4ZM303.4,180c-14.9,0-19.8,7.5-19.8,13.6,0,6.8,3.4,11.4,23.2,21.7,29.4,14.3,38.7,27.8,38.7,48,0,30-22.9,46.1-53.8,46.1-16.4,0-30.4-3.4-38.4-8.1-1.2-.6-1.5-1.5-1.5-3.1V270.7c0-1.8.9-2.5,2.1-1.5a68.42,68.42,0,0,0,37.7,11.1c14.9,0,21-6.2,21-14.6,0-6.8-4.3-12.7-23.1-22.6-26.7-12.7-37.8-25.7-37.8-47.4,0-24.2,18.9-44.2,51.6-44.2,16.1,0,27.5,2.5,33.7,5.2a4.17,4.17,0,0,1,1.8,3.7v25.7c0,1.5-1,2.5-2.8,1.8-8.3-4.8-20.6-8-32.6-7.9Z"/></g></g></svg>