<svg xmlns="http://www.w3.org/2000/svg" viewBox="0 0 470.9 459.84"><defs><style>.cls-1{fill:#7f5af0;}</style></defs><g id="Layer_2" data-name="Layer 2"><g id="Layer_1-2" data-name="Layer 1"><path class="cls-1" d="M0,0H470.9V459.84H0ZM21.4,440.06h429V20.57h-5.77q-208.53,0-417-.13c-5.24,0-6.24,1.56-6.24,6.44q.19,203.52.1,407.05Z"/><path class="cls-1" d="M118.2,324.25c4.9-15.38,9.44-29.76,14-44.13,15.41-48.1,30.9-96.17,46.12-144.33,1.55-4.91,3.49-6.8,8.88-6.56,11.45.51,22.95.28,34.42.07,3.26-.06,4.65,1.12,5.61,4.1q22.29,69,44.74,138,7.77,23.94,15.53,47.89c.44,1.37.71,2.8,1.26,5-7.76,0-15,.05-22.26,0-5-.05-11.19,1.53-14.54-.85s-3.88-8.74-5.42-13.44c-4-12.31-8.05-24.63-11.84-37-1-3.09-2.39-4.11-5.61-4.09q-26.68.24-53.38,0c-3.3,0-4.61,1.15-5.5,4.18-4.49,15.3-9.31,30.51-13.74,45.83-1.12,3.9-2.61,5.7-7.08,5.53C139.34,324,129.22,324.25,118.2,324.25Zm83.74-164.83C194.09,186.31,186,214,177.81,242H227Z"/><path class="cls-1" d="M338.63,323.91H303.58V183.81h35.05Z"/><path class="cls-1" d="M320.42,163c-11.44-.1-19.29-7.87-19.23-19s8.29-19.14,19.86-19.13,20,8.3,19.81,19.74C340.7,155.66,332.38,163.14,320.42,163Z"/></g></g></svg>